SubjTestsquat
version=1
nRows=39
nColumns=19
inDegrees=no
endheader
time	l_ground_force_vx	l_ground_force_vy	l_ground_force_vz	l_ground_force_px	l_ground_force_py	l_ground_force_pz	ground_force_vx	ground_force_vy	ground_force_vz	ground_force_px	ground_force_py	ground_force_pz	l_ground_torque_x	l_ground_torque_y	l_ground_torque_z	ground_torque_x	ground_torque_y	ground_torque_z	
13.81	-6.84382656287235	306.953275678963	42.5848045635578	0.161240517289851	0	-0.151345806423053	7.16869444815507	300.59817794706	-42.6693887121051	0.167103438016677	0	0.15038670551068	0	-10.1213031193606	0	0	13.4214669318583	0
13.82	-6.88264053105211	308.600637125966	42.2549957900602	0.16126396310014	0	-0.151313688806679	7.96084814480937	301.041162579092	-42.0749197746667	0.167127671298327	0	0.150286432592594	0	-10.0279967777108	0	0	13.7064771626598	0
13.83	-6.58933545371652	310.806052374897	41.8540069037833	0.16114541643531	0	-0.151357207660044	8.76250722343101	301.489882375571	-40.874008463012	0.16722115127386	0	0.150112559651061	0	-9.32364261276558	0	0	13.9564081254871	0
13.84	-6.03132509316098	312.938252900428	41.2648873058271	0.161074017352049	0	-0.151299368743091	9.38968791023119	302.143099537128	-39.2017887650454	0.167366893173574	0	0.150002233869697	0	-8.32491431194835	0	0	13.8708259071354	0
13.85	-5.3828181488273	314.264087164788	40.5235921000943	0.161081680418359	0	-0.151005394090962	9.85007924607362	302.983812886774	-37.26380533213	0.167700297106455	0	0.149971768552966	0	-7.31581859988778	0	0	13.4514538383002	0
13.86	-4.74794749407672	314.593134892994	39.5523684126426	0.16128454072663	0	-0.150483832743206	10.3429352207958	303.764575834898	-35.2562573243543	0.168174426234185	0	0.149904278006165	0	-6.33924493419607	0	0	13.0481625695183	0
13.87	-4.04725492787722	314.236510912596	38.0682569666828	0.161435863432991	0	-0.149848161522312	11.0255592705624	304.203271498474	-33.4010415175038	0.168441810995628	0	0.149674277525943	0	-5.1082942229027	0	0	13.0893551992548	0
13.88	-3.24921343767683	313.625377758376	35.996369927717	0.161417735387124	0	-0.14912591337799	11.8140693672284	304.228964100568	-31.8306931685617	0.168445591232206	0	0.149242000448925	0	-3.51236006884162	0	0	13.5544180273023	0
13.89	-2.59000820083988	313.044809527801	33.6123217969574	0.161610618360855	0	-0.148272343189599	12.5325030219438	303.980648929081	-30.4284972884663	0.168592595103248	0	0.148704165287169	0	-1.9599423940677	0	0	13.9411443442153	0
13.9	-2.32623902852421	312.763788776247	31.2598461663588	0.162157798393041	0	-0.147336137005776	13.0714623992187	303.73847101919	-29.0033912349371	0.169182848694361	0	0.148162700898792	0	-0.912641389225151	0	0	14.047127622403	0
13.91	-2.50098597003252	313.098322909021	29.0122730371044	0.162741379606354	0	-0.146444052212954	13.547822631654	303.932361359101	-27.3491711737048	0.169790723607737	0	0.147808522629367	0	-0.675486112027184	0	0	13.9351864445238	0
13.92	-2.96019459693747	314.012914030351	27.0129848599892	0.163230825601808	0	-0.145767152576442	14.0638108457733	304.547465740276	-25.4162953639801	0.170202989005422	0	0.147705329673879	0	-1.00641334128982	0	0	13.7318439757807	0
13.93	-3.46315904035732	315.209861678685	25.5289449239474	0.163852259568289	0	-0.145415318353984	14.4913978948286	305.153386963866	-23.4100557255075	0.170647556487052	0	0.147743876575624	0	-1.37293851329056	0	0	13.4752270740307	0
13.94	-3.81292800844947	316.397348937472	24.6049717733391	0.164431773002113	0	-0.145443261983609	14.7245483441098	305.355573014992	-21.5787679895625	0.171031007670687	0	0.147799057711994	0	-1.45617971085261	0	0	13.223157682854	0
13.95	-3.92157047365538	317.328134020218	24.1536724951855	0.16474230663399	0	-0.145731588991142	14.6375259338048	304.86120644199	-20.1482190769809	0.171453616577144	0	0.147812025573958	0	-1.22480335388809	0	0	12.931950723992	0
13.96	-3.7530685234829	317.888599396343	23.9066904303227	0.165052859258356	0	-0.146013833192553	14.064883986314	303.672464920542	-19.1388069951552	0.172060429020539	0	0.147916241136619	0	-0.708568051184324	0	0	12.5209281822991	0
13.97	-3.30652991670078	318.194930737081	23.4154304028921	0.16542956093075	0	-0.146154137221681	13.0684735672814	302.130014636886	-18.4282217336424	0.172824718044107	0	0.148217261054343	0	0.0997564597584494	0	0	12.1709091799108	0
13.98	-2.78697350253613	318.296600253609	22.4507660187989	0.165588629514528	0	-0.146096163296204	11.8067678827999	300.638996114603	-17.9025670588023	0.173542615935849	0	0.148681654567347	0	0.857385378085094	0	0	11.9256027138112	0
13.99	-2.42979779130261	318.080435027277	21.1683393481005	0.165440449785703	0	-0.145807110381234	10.3710912720866	299.577713890589	-17.5204599871824	0.17412820441589	0	0.149236156757659	0	1.19822586720918	0	0	11.6699190255235	0
14	-2.40886679937836	317.538666757748	19.7483699449599	0.165272743403052	0	-0.145382636948821	8.96050370711084	299.267746354992	-17.2672548383807	0.174713392773395	0	0.149783838443848	0	0.990353558895643	0	0	11.4240812373791	0
14.01	-2.80306706491967	316.819997469242	18.2470975903787	0.165392208398306	0	-0.14504249132824	7.84255045082132	299.890805698942	-17.0082464155937	0.175132112579207	0	0.15026417943555	0	0.247843763996392	0	0	11.3512766560005	0
14.02	-3.63173379298028	315.9318261864	16.7911200912781	0.165870420868871	0	-0.144863573295798	7.177504530481	301.315415101731	-16.6911433853839	0.175387040166381	0	0.150578237653876	0	-1.00453056782126	0	0	11.4022704782074	0
14.03	-4.6541565086016	314.795832338671	15.5336413166602	0.166624038370482	0	-0.144788288048846	7.01306150694238	303.41641980298	-16.2498783714305	0.175474357928927	0	0.150660222316228	0	-2.32455016552891	0	0	11.4671786401984	0
14.04	-5.52819523017424	313.711220752595	14.4425987271273	0.167277150074666	0	-0.144664319985422	7.38725227376879	306.194496550112	-15.546311234755	0.174891060253148	0	0.1506538974077	0	-3.30417781578121	0	0	11.4925124745928	0
14.05	-5.80371330180235	313.375186151497	13.3613081811246	0.167397698065796	0	-0.14442410356279	8.2196080445115	309.387897259636	-14.5121563026124	0.173606933182983	0	0.150665604673236	0	-3.50474936530894	0	0	11.5065414601066	0
14.06	-5.17556920557516	314.271798009523	12.2704552399074	0.166890177665022	0	-0.144133611022233	9.12287085473984	312.456292760515	-13.2306540517395	0.172214586496323	0	0.15069641989717	0	-2.45536399948986	0	0	11.4990263976289	0
14.07	-3.63690825484861	316.140195099215	11.202040432761	0.166228976614162	0	-0.143843753286772	9.69034840175624	315.019415954953	-12.0358143715489	0.17140632000062	0	0.150627972995397	0	-0.0946105992411104	0	0	11.3232826608941	0
14.08	-1.45687074885941	317.977394814041	10.1320356331961	0.165711230002407	0	-0.143578473665154	9.80365840519886	317.205689913438	-11.3440270107711	0.171463534214623	0	0.150377284695868	0	3.17646136033752	0	0	11.139640175093	0
14.09	0.526806290779184	318.745066830003	9.12621223944673	0.165356539769059	0	-0.143353781157778	9.53800309483859	319.47650458798	-11.2970695040029	0.171945451108359	0	0.150120352440255	0	6.03731975875839	0	0	11.0965792747943	0
14.1	1.49492620845241	318.080405792017	8.27637829553312	0.16525646919554	0	-0.143178550123182	9.06371221585446	322.190896833293	-11.7593871245315	0.17243034146354	0	0.150054607965384	0	7.31452830201679	0	0	11.1368078773568	0
14.11	1.28605245439675	316.373201290112	7.62855649287176	0.165387124520551	0	-0.143135724328675	8.39710478922222	325.362807104076	-12.4989545151517	0.172725131560539	0	0.150172301720771	0	7.04741586034137	0	0	11.2916845285731	0
14.12	0.188679977449754	314.333694862707	7.36234448632643	0.165652311180902	0	-0.143243354973973	7.44922791020613	328.659565415831	-13.2664114428301	0.172738047380518	0	0.150323597822661	0	5.72261713662944	0	0	11.4862244964898	0
14.13	-1.50102315014735	312.717683822985	7.51903504372538	0.166040271505491	0	-0.143442024288617	6.15651580406992	331.582711127983	-13.7752007076429	0.172685558178829	0	0.15044174098146	0	3.70069308323475	0	0	11.5011643457986	0
14.14	-3.38095923434723	312.149862355566	7.88551133208639	0.166560991341632	0	-0.143681442368674	4.82164875365988	333.745360977773	-13.7416430361559	0.172691450326384	0	0.150550248532651	0	1.44584124571563	0	0	11.3743862893212	0
14.15	-5.00118991123681	312.894084872546	8.29584604346725	0.167158296098901	0	-0.143878242720674	3.7878179516082	335.027865917931	-13.0754128782308	0.172822645815854	0	0.150693016346818	0	-0.580965155057826	0	0	11.0924049854446	0
14.16	-5.82518894039355	314.863290040674	8.56331114291756	0.167250361405043	0	-0.144093282170102	3.29161543972431	335.612706543843	-11.9505182571916	0.172787773354345	0	0.150843295663932	0	-1.78751851462094	0	0	10.9241544670612	0
14.17	-5.82654562167488	317.464440967166	8.71834106667362	0.166786581036475	0	-0.144391689618481	3.25553634094757	335.591884747878	-10.8982313204919	0.172635017634649	0	0.150951797926179	0	-2.02057863175578	0	0	10.8892955718035	0
14.18	-5.42582634316811	319.765314830958	9.08160845140041	0.166440087092413	0	-0.144756800037464	3.3531971083292	334.929752615093	-10.4262288632985	0.172848630451813	0	0.150940774540266	0	-1.65442514739712	0	0	10.6280614861304	0
14.19	-4.97807259318419	320.992272612314	9.71464563771451	0.166466285893148	0	-0.145065127577664	3.50299068236181	333.675667210037	-10.5120890501788	0.173226139165506	0	0.150782689101171	0	-1.28543950766153	0	0	10.1925579925728	0
